{
  "asset": {
    "generator": "Khronos glTF Blender I/O v0.9.36",
    "version": "2.0"
  },
  "scene": 0,
  "scenes": [
    {
      "name": "Scene",
      "nodes": [0]
    }
  ],
  "nodes": [
    {
      "mesh": 0,
      "name": "Cube",
      "scale": [0.3100000023841858, 0.10846525430679321, 0.20327889919281006],
      "translation": [3.2730462551116943, 0, 0]
    }
  ],
  "animations": [
    {
      "channels": [
        {
          "sampler": 0,
          "target": {
            "node": 0,
            "path": "translation"
          }
        },
        {
          "sampler": 1,
          "target": {
            "node": 0,
            "path": "rotation"
          }
        },
        {
          "sampler": 2,
          "target": {
            "node": 0,
            "path": "scale"
          }
        }
      ],
      "name": "Action",
      "samplers": [
        {
          "input": 4,
          "interpolation": "LINEAR",
          "output": 5
        },
        {
          "input": 6,
          "interpolation": "CUBICSPLINE",
          "output": 7
        },
        {
          "input": 4,
          "interpolation": "LINEAR",
          "output": 8
        }
      ]
    }
  ],
  "materials": [
    {
      "doubleSided": true,
      "name": "Material",
      "pbrMetallicRoughness": {
        "baseColorFactor": [
          0.800000011920929,
          0.800000011920929,
          0.800000011920929,
          1
        ],
        "metallicFactor": 0,
        "roughnessFactor": 0.4000000059604645
      }
    }
  ],
  "meshes": [
    {
      "name": "Cube",
      "primitives": [
        {
          "attributes": {
            "POSITION": 0,
            "NORMAL": 1,
            "TEXCOORD_0": 2
          },
          "indices": 3,
          "material": 0
        }
      ]
    }
  ],
  "accessors": [
    {
      "bufferView": 0,
      "componentType": 5126,
      "count": 150,
      "max": [1, 1, 1],
      "min": [-1, -1, -1],
      "type": "VEC3"
    },
    {
      "bufferView": 1,
      "componentType": 5126,
      "count": 150,
      "type": "VEC3"
    },
    {
      "bufferView": 2,
      "componentType": 5126,
      "count": 150,
      "type": "VEC2"
    },
    {
      "bufferView": 3,
      "componentType": 5123,
      "count": 576,
      "type": "SCALAR"
    },
    {
      "bufferView": 4,
      "componentType": 5126,
      "count": 60,
      "max": [2.5],
      "min": [0.041666666666666664],
      "type": "SCALAR"
    },
    {
      "bufferView": 5,
      "componentType": 5126,
      "count": 60,
      "type": "VEC3"
    },
    {
      "bufferView": 6,
      "componentType": 5126,
      "count": 2,
      "max": [2.5],
      "min": [0.041666666666666664],
      "type": "SCALAR"
    },
    {
      "bufferView": 7,
      "componentType": 5126,
      "count": 6,
      "type": "VEC4"
    },
    {
      "bufferView": 8,
      "componentType": 5126,
      "count": 60,
      "type": "VEC3"
    }
  ],
  "bufferViews": [
    {
      "buffer": 0,
      "byteLength": 1800,
      "byteOffset": 0
    },
    {
      "buffer": 0,
      "byteLength": 1800,
      "byteOffset": 1800
    },
    {
      "buffer": 0,
      "byteLength": 1200,
      "byteOffset": 3600
    },
    {
      "buffer": 0,
      "byteLength": 1152,
      "byteOffset": 4800
    },
    {
      "buffer": 0,
      "byteLength": 240,
      "byteOffset": 5952
    },
    {
      "buffer": 0,
      "byteLength": 720,
      "byteOffset": 6192
    },
    {
      "buffer": 0,
      "byteLength": 8,
      "byteOffset": 6912
    },
    {
      "buffer": 0,
      "byteLength": 96,
      "byteOffset": 6920
    },
    {
      "buffer": 0,
      "byteLength": 720,
      "byteOffset": 7016
    }
  ],
  "buffers": [
    {
      "byteLength": 7736,
      "uri": "data:application/octet-stream;base64,"
    }
  ]
}
