<svg width="244" height="158" viewBox="0 0 244 158" fill="none" xmlns="http://www.w3.org/2000/svg">
<path d="M158.641 39.1787C158.641 19.9768 142.14 4.37524 121.738 4.37524C101.185 4.37524 84.6838 19.9768 84.6838 39.1787C84.6838 58.3807 101.185 73.9822 121.588 73.9822C141.99 73.9822 158.641 58.3807 158.641 39.1787Z" fill="black"/>
<path d="M117.236 2.26555C137.009 2.26555 152.874 17.3685 152.874 35.8035C152.874 54.2321 136.866 69.3414 117.086 69.3414C97.3133 69.3414 81.4482 54.2385 81.4482 35.8035C81.4482 17.3717 97.3098 2.26555 117.236 2.26555Z" fill="white" stroke="black" stroke-width="2.53109"/>
<path d="M117.086 70.607C137.468 70.607 153.99 55.0249 153.99 35.8035C153.99 16.5821 137.468 1 117.086 1C96.705 1 80.1826 16.5821 80.1826 35.8035C80.1826 55.0249 96.705 70.607 117.086 70.607Z" stroke="black" stroke-width="1.0256" stroke-miterlimit="10"/>
<path d="M108.329 42.6379H96.4758L101.187 50.996L109.089 55.7069L113.8 56.0109L108.329 42.6379Z" fill="#BDE1DC"/>
<path d="M107.973 28.6309C104.145 28.5371 96.4219 28.359 96.1594 28.3965L94.3779 35.4753L96.5344 42.7417H108.77L107.973 28.6309Z" fill="#C4DDF4"/>
<path d="M109.849 23.9423L115.474 15.4102L109.849 15.6446L101.176 20.6138L96.4409 28.2083L108.489 28.6771L109.849 23.9423Z" fill="#A492DC"/>
<path d="M137.962 28.5054H126.108L125.349 42.7901H138.418L139.481 35.1918L137.962 28.5054Z" fill="#F3D293"/>
<path d="M138.114 42.6379H126.109L124.589 49.1724L120.486 56.1628L130.516 52.9716L135.683 48.4126L138.114 42.6379Z" fill="#FBC09F"/>
<path d="M138.989 27.1029H117.987C117.837 28.003 117.687 28.7531 117.537 29.6532H123.687C124.137 29.6532 124.437 29.9532 124.437 30.4032C124.587 32.0534 124.737 33.8536 124.737 35.8038C124.737 47.5049 120.687 55.7558 117.087 55.7558C113.486 55.7558 109.436 47.5049 109.436 35.8038C109.436 23.9526 113.336 10.4512 128.188 18.7021V15.8518C124.737 14.2016 120.987 13.3015 117.237 13.3015C104.185 13.3015 93.5342 23.3525 93.5342 35.8038C93.5342 48.255 104.185 58.306 117.237 58.306C130.288 58.306 140.939 48.255 140.939 35.8038C140.939 32.6535 140.189 29.8032 138.989 27.1029ZM112.736 16.6018C110.186 18.8521 108.536 22.6024 107.636 26.8029C107.636 27.1029 107.336 27.2529 107.186 27.2529H98.7847C98.4847 27.2529 98.3347 26.9529 98.4847 26.6529C101.335 21.5523 106.285 17.652 112.586 16.1518C112.886 16.0018 113.036 16.3018 112.736 16.6018ZM97.5846 29.8032H106.585C106.886 29.8032 107.186 30.1032 107.036 30.4032C106.886 32.2034 106.736 34.0036 106.736 35.8038C106.736 37.604 106.886 39.2541 107.036 40.9043C107.036 41.2043 106.886 41.5043 106.585 41.5043H97.4346C97.1345 41.5043 96.8345 41.3543 96.6845 40.9043C96.2345 39.2541 95.9344 37.604 95.9344 35.8038C95.9344 34.0036 96.2345 32.0534 96.8345 30.2532C96.8345 29.9532 97.1345 29.8032 97.5846 29.8032ZM98.6347 44.0546H107.036C107.336 44.0546 107.486 44.2046 107.486 44.5046C108.236 48.5551 109.586 52.1554 111.236 54.5557C111.386 54.7057 111.236 55.0057 110.936 55.0057C105.385 53.3555 100.735 49.7552 98.1846 44.9547C98.0346 44.5046 98.3347 44.0546 98.6347 44.0546ZM122.937 54.5557C124.587 52.1554 125.937 48.7051 126.688 44.5046C126.688 44.2046 126.988 44.0546 127.138 44.0546H135.538C135.988 44.0546 136.138 44.5046 135.988 44.8047C133.438 49.6052 128.788 53.3555 123.237 54.8557C122.937 55.0057 122.787 54.7057 122.937 54.5557ZM136.889 41.5043H127.738C127.438 41.5043 127.138 41.2043 127.288 40.9043C127.438 39.2541 127.588 37.604 127.588 35.8038C127.588 33.8536 127.438 32.0534 127.288 30.4032C127.288 30.1032 127.438 29.8032 127.738 29.8032H136.889C137.189 29.8032 137.489 29.9532 137.639 30.4032C138.239 32.2034 138.389 34.0036 138.389 35.8038C138.389 37.604 138.089 39.2541 137.639 40.9043C137.489 41.2043 137.189 41.5043 136.889 41.5043Z" fill="black"/>
<path d="M2.47457 103.965C2.47457 111.318 7.60656 114.559 14.8394 114.559C19.8813 114.559 22.4623 112.969 23.6328 112.278V102.285H14.6293V106.216H18.9209V109.517C17.9306 109.788 16.7001 109.968 15.2295 109.968C10.6377 109.968 7.81664 107.837 7.81664 103.725C7.81664 99.6736 11.0879 97.6328 15.3796 97.6328C18.8609 97.6328 20.6016 98.6832 21.802 99.5235L23.7228 95.562C22.3122 94.6016 20.0614 93.1311 15.1695 93.1311C8.26681 93.1311 2.47457 96.7325 2.47457 103.965ZM53.2861 114.199L48.0041 106.936C50.9752 105.826 52.5058 103.665 52.5058 100.634C52.5058 95.9822 49.3846 93.4912 42.572 93.4912H33.0583V114.199H38.2803V107.717H42.602L46.8636 114.199H53.2861ZM47.1037 100.754C47.1037 102.555 45.6031 103.575 42.2118 103.575H38.2803V97.9329H42.3919C45.8132 97.9329 47.1037 98.8633 47.1037 100.754ZM74.565 93.4912H68.8328L59.7093 114.199H65.2914L67.3022 109.187H75.9456L77.9864 114.199H83.6886L74.565 93.4912ZM74.565 105.616H68.6828L71.5939 98.4131H71.6539L74.565 105.616ZM112.645 93.4912H107.393V106.216H107.333L96.7685 93.4912H91.5164V114.199H96.7385V101.474H96.7985L107.393 114.199H112.645V93.4912ZM142.486 93.4912H120.518V97.9329H128.891V114.199H134.143V97.9329H142.486V93.4912ZM181.189 93.4912H164.623V114.199H169.845V107.687H180.169V103.215H169.845V97.9329H181.189V93.4912ZM212.408 103.845C212.408 97.3627 207.966 93.1311 200.313 93.1311C192.69 93.1311 188.218 97.3627 188.218 103.845C188.218 110.328 192.66 114.559 200.313 114.559C207.936 114.559 212.408 110.328 212.408 103.845ZM207.036 103.785C207.036 107.537 204.485 109.938 200.343 109.938C196.141 109.938 193.59 107.537 193.59 103.785C193.59 100.064 196.141 97.6628 200.313 97.6628C204.485 97.6628 207.036 100.064 207.036 103.785ZM241.404 114.199L236.122 106.936C239.093 105.826 240.624 103.665 240.624 100.634C240.624 95.9822 237.502 93.4912 230.69 93.4912H221.176V114.199H226.398V107.717H230.72L234.981 114.199H241.404ZM235.221 100.754C235.221 102.555 233.721 103.575 230.33 103.575H226.398V97.9329H230.51C233.931 97.9329 235.221 98.8633 235.221 100.754ZM50.2562 129.491H28.2877V133.933H36.661V150.199H41.913V133.933H50.2562V129.491ZM79.3431 129.491H74.0911V137.444H63.3769V129.491H58.1549V150.199H63.3769V141.886H74.0911V150.199H79.3431V129.491ZM105.547 129.491H89.0106V150.199H105.817V145.727H94.2626V141.676H104.437V137.594H94.2626V133.873H105.547V129.491ZM160.996 129.491H155.473L152.112 143.207H152.052L146.89 129.491H141.548L136.386 143.207H136.326L132.965 129.491H127.443L133.235 150.199H138.607L144.189 135.884H144.249L149.801 150.199H155.203L160.996 129.491ZM185.453 129.491H168.916V150.199H185.723V145.727H174.169V141.676H184.342V137.594H174.169V133.873H185.453V129.491ZM214.419 144.377C214.419 141.736 212.499 139.995 209.918 139.515V139.455C211.989 138.885 213.489 137.294 213.489 134.803C213.489 131.562 211.088 129.491 205.026 129.491H194.702V150.199H205.116C211.778 150.199 214.419 147.798 214.419 144.377ZM208.327 135.584C208.327 136.934 207.247 137.774 204.426 137.774H199.924V133.573H204.426C207.337 133.573 208.327 134.293 208.327 135.584ZM209.167 143.717C209.167 145.097 208.087 145.878 204.786 145.878H199.924V141.436H204.696C208.057 141.436 209.167 142.276 209.167 143.717Z" fill="black"/>
</svg>
